<svg width="26" height="26" viewBox="0 0 26 26" fill="none" xmlns="http://www.w3.org/2000/svg">
<path d="M4.22308 12.5552C4.22308 15.0458 5.19449 17.3881 6.96046 19.1473C8.72643 20.9092 11.0717 21.8783 13.5681 21.8783C16.0646 21.8783 18.4124 20.9092 20.1758 19.1473C21.9417 17.3855 22.9131 15.0458 22.9131 12.5552H21.4906C21.4906 14.6673 20.6653 16.6516 19.1685 18.145C17.6716 19.6383 15.6827 20.4617 13.5656 20.4617C11.4484 20.4617 9.45949 19.6383 7.96264 18.145C6.4658 16.6516 5.64048 14.6673 5.64048 12.5552C5.64048 10.443 6.4658 8.45873 7.96264 6.96539C9.45949 5.47205 11.4484 4.64867 13.5656 4.64867V3.22949C11.0691 3.22949 8.72131 4.19863 6.9579 5.96046C5.19449 7.72229 4.22308 10.0646 4.22308 12.5552Z" fill="#000042"/>
<path d="M20.9833 20.6841C18.8149 22.8551 15.9263 24.0493 12.8506 24.0493V25.4684C16.3056 25.4684 19.5531 24.126 21.9906 21.6865C23.1748 20.5 24.1052 19.1192 24.7536 17.5824C25.4252 15.9893 25.7661 14.2991 25.7661 12.5552H24.3435C24.3435 15.6262 23.1491 18.5132 20.9833 20.6841Z" fill="#000042"/>
<path d="M13.5681 1.77709V0.35791C11.8201 0.35791 10.1259 0.700559 8.52908 1.37307C6.98866 2.02257 5.6046 2.95335 4.41532 4.13984C3.22605 5.32632 2.29308 6.70715 1.64205 8.24395C0.967959 9.83702 0.624512 11.5272 0.624512 13.2712H2.04703C2.04703 10.2001 3.24655 7.31318 5.42261 5.14221C7.59868 2.97381 10.4924 1.77709 13.5681 1.77709Z" fill="#000042"/>
<path d="M17.7536 2.63336C16.4234 2.06825 15.0163 1.7793 13.5681 1.7793V3.19848C16.0517 3.19848 18.397 4.17528 20.168 5.95246C21.9391 7.72707 22.9156 10.0719 22.9156 12.5548H24.3382C24.3382 11.1101 24.0511 9.7037 23.4872 8.37657C22.9439 7.09547 22.1647 5.94223 21.1753 4.95264C20.186 3.96049 19.0352 3.18058 17.7536 2.63336Z" fill="#000042"/>
<path d="M9.97463 13.8235C9.47225 13.8235 9.22875 13.5038 9.15698 13.289L8.65973 13.5396C8.80583 14.0332 9.35434 14.3528 9.99 14.3528C10.8358 14.3528 11.2664 13.8005 11.2664 13.2481C11.2664 12.7827 10.964 12.4861 10.5795 12.4094V12.4043C10.9179 12.3174 11.1614 11.9977 11.1614 11.6065C11.1614 11.0081 10.6128 10.645 9.98487 10.645C9.29795 10.645 8.80839 11.0874 8.73662 11.6525L9.25695 11.7676C9.31077 11.3789 9.58247 11.1692 9.93362 11.1692C10.295 11.1692 10.559 11.3738 10.559 11.7037C10.559 12.0105 10.3258 12.233 9.93619 12.233H9.59272V12.6984H9.95412C10.4155 12.6984 10.6539 12.9413 10.6539 13.2635C10.6564 13.6087 10.3822 13.8235 9.97463 13.8235Z" fill="#000042"/>
<path d="M13.4861 11.1642C13.7142 11.1642 13.9244 11.2179 14.1217 11.379L14.437 10.9673C14.1756 10.7167 13.8193 10.6426 13.5271 10.6426C12.53 10.6426 11.8406 11.4915 11.8406 12.6908C11.8406 13.7622 12.3942 14.3503 13.2067 14.3503C13.9884 14.3503 14.5139 13.8159 14.5139 13.1229C14.5139 12.4146 13.9551 11.9518 13.3246 11.9518C12.9453 11.9518 12.6198 12.1334 12.466 12.4172H12.4557C12.4711 11.7242 12.8735 11.1642 13.4861 11.1642ZM13.217 12.4325C13.5835 12.4325 13.9167 12.7113 13.9167 13.1434C13.9167 13.5756 13.5732 13.8415 13.2118 13.8415C12.8504 13.8415 12.507 13.5628 12.507 13.1485C12.507 12.7522 12.8222 12.4325 13.217 12.4325Z" fill="#000042"/>
<path d="M17.8023 12.5041C17.8023 11.4097 17.2615 10.6426 16.4362 10.6426C15.6032 10.6426 15.0649 11.4097 15.0649 12.5041C15.0649 13.5935 15.6058 14.3529 16.4362 14.3529C17.2615 14.3529 17.8023 13.596 17.8023 12.5041ZM15.6724 12.5016C15.6724 11.6577 15.9825 11.1796 16.4362 11.1796C16.8848 11.1796 17.1872 11.6577 17.1872 12.5016C17.1872 13.3505 16.8848 13.821 16.4362 13.821C15.9825 13.8185 15.6724 13.348 15.6724 12.5016Z" fill="#000042"/>
<path d="M19.7734 11.4173C19.7734 10.9571 19.4632 10.6323 19.0173 10.6323C18.5687 10.6323 18.2585 10.9571 18.2585 11.4173C18.2585 11.8776 18.5713 12.1998 19.0173 12.1998C19.4658 12.1998 19.7734 11.8776 19.7734 11.4173ZM18.5892 11.4173C18.5892 11.1335 18.7661 10.9315 19.0173 10.9315C19.271 10.9315 19.4453 11.1335 19.4453 11.4173C19.4453 11.6986 19.2684 11.9006 19.0173 11.9006C18.7635 11.9006 18.5892 11.6986 18.5892 11.4173Z" fill="#000042"/>
</svg>
