<svg width="20" height="20" viewBox="0 0 20 20" fill="none" xmlns="http://www.w3.org/2000/svg">
<path d="M10.7531 13.5107V14.9299C12.7318 14.9299 14.3415 13.324 14.3415 11.3499C14.3415 9.37587 12.7318 7.77002 10.7531 7.77002C8.77442 7.77002 7.16479 9.37587 7.16479 11.3499H8.58731C8.58731 10.1583 9.55873 9.18664 10.7557 9.18664C11.9501 9.18664 12.9241 10.1558 12.9241 11.3499C12.919 12.5415 11.9475 13.5107 10.7531 13.5107Z" fill="#000042"/>
<path d="M17.958 17.8196H2.10782V5.60693H0.685303V19.2387H19.3779V5.60693H17.958V17.8196Z" fill="#000042"/>
<path d="M17.9477 0.589844H9.31268V2.00903H17.9477V0.589844Z" fill="#000042"/>
<path d="M17.9502 4.18018H2.11804V5.59936H17.9502V4.18018Z" fill="#000042"/>
<path d="M7.14687 11.3501H5.72437C5.72437 13.3446 6.90851 15.1499 8.74111 15.9477L9.31012 14.6487C7.99526 14.0759 7.14687 12.7795 7.14687 11.3501Z" fill="#000042"/>
</svg>
