<svg width="25" height="24" viewBox="0 0 25 24" fill="none" xmlns="http://www.w3.org/2000/svg">
<path d="M7.76579 3.30566V4.01398V4.72229C7.81705 4.72229 7.87087 4.72485 7.91957 4.72996C8.11949 4.75042 8.30917 4.81434 8.47577 4.90896C8.91406 5.15699 9.21138 5.6275 9.21138 6.16448C9.21138 6.70147 8.91406 7.17197 8.47577 7.42257C8.2656 7.54019 8.0221 7.60924 7.76579 7.60924C7.50692 7.60924 7.26598 7.54019 7.05581 7.42257C6.61752 7.17453 6.3202 6.70403 6.3202 6.16448H5.61022H4.90023C4.90023 7.49672 5.8204 8.61928 7.05837 8.93381V11.8693C4.21334 11.519 2.00395 9.0949 2.00395 6.16193H0.578857C0.578857 9.87737 3.4239 12.9408 7.05581 13.2962V21.2462H8.47831V8.93892C9.71628 8.62184 10.6364 7.50184 10.6364 6.1696C10.6364 4.59188 9.34978 3.30566 7.76579 3.30566Z" fill="#000042"/>
<path d="M14.9527 9.85986V4.73291H13.5302V9.85986C12.2922 10.1769 11.3721 11.2969 11.3721 12.6292C11.3721 13.9614 12.2922 15.084 13.5302 15.3985V21.2466H14.9527V15.4011C16.1907 15.084 17.1108 13.964 17.1108 12.6317C17.1108 11.2995 16.1932 10.1769 14.9527 9.85986ZM14.9527 13.8873C14.7425 14.0049 14.4991 14.0739 14.2428 14.0739C13.9839 14.0739 13.7429 14.0049 13.5328 13.8873C13.0945 13.6392 12.7972 13.1687 12.7972 12.6292C12.7972 12.0896 13.0945 11.6217 13.5328 11.3737C13.7429 11.256 13.9864 11.187 14.2428 11.187C14.5016 11.187 14.7425 11.256 14.9527 11.3737C15.391 11.6217 15.6883 12.0922 15.6883 12.6292C15.6909 13.1687 15.3936 13.6392 14.9527 13.8873Z" fill="#000042"/>
<path d="M23.5774 19.0933C23.5774 19.8629 23.2801 20.584 22.7393 21.121C22.1985 21.6606 21.4783 21.9572 20.7068 21.9572V23.3764C21.8576 23.3764 22.9367 22.9314 23.7466 22.126C24.5566 21.3205 25 20.2414 25 19.0933H23.5774Z" fill="#000042"/>
<path d="M7.76575 1.87133V0.452148C4.59521 0.452148 2.01672 3.0169 2.01672 6.16979H3.43925C3.43925 3.79937 5.38207 1.87133 7.76575 1.87133Z" fill="#000042"/>
<path d="M19.9969 17.8354C20.207 17.7178 20.4505 17.6487 20.7069 17.6487C20.9657 17.6487 21.2067 17.7178 21.4168 17.8354C21.8551 18.0834 22.1524 18.5539 22.1524 19.0909H22.8624H23.5724C23.5724 17.7587 22.6522 16.6361 21.4143 16.3216V4.73291H19.9917V16.3216C18.7538 16.6387 17.8336 17.7587 17.8336 19.0909C17.8336 20.6687 19.1203 21.9549 20.7043 21.9549V21.2466V20.5382C19.9072 20.5382 19.2561 19.8913 19.2561 19.0935C19.2587 18.554 19.556 18.0834 19.9969 17.8354Z" fill="#000042"/>
</svg>
