<svg width="23" height="22" viewBox="0 0 23 22" fill="none" xmlns="http://www.w3.org/2000/svg">
<path d="M1.80893 11.504L9.957 21.3436L15.9598 13.9127L14.8525 13.0229L9.94418 19.1011L2.9085 10.6064C2.03192 9.53245 1.57312 7.84222 2.63424 6.66852C3.30065 5.93208 4.34126 5.47436 5.35368 5.47436C6.03034 5.47436 6.65061 5.60477 7.19399 5.86303L7.80144 4.57938C7.06327 4.23161 6.24051 4.05518 5.35368 4.05518C3.93117 4.05518 2.51891 4.67655 1.57825 5.71984C0.845207 6.53043 0.514566 7.56094 0.619653 8.69628C0.709361 9.6782 1.13227 10.6755 1.80893 11.504Z" fill="#000042"/>
<path d="M17.3541 2.57966C19.2918 3.43116 20.781 4.98587 21.5473 6.95738L22.8724 6.44341C21.9677 4.11902 20.212 2.28815 17.9257 1.28066C15.6394 0.275723 13.0994 0.219467 10.7695 1.11956L11.2847 2.44157C13.2609 1.67956 15.4164 1.72815 17.3541 2.57966Z" fill="#000042"/>
<path d="M11.2744 10.1282C11.0591 9.57329 10.9925 8.96982 11.0848 8.37658C11.2232 7.47904 11.705 6.6889 12.4406 6.15191C13.1762 5.61492 14.0759 5.39502 14.9755 5.53566C15.9187 5.68141 16.7723 6.21073 17.3156 6.99064C17.818 7.70918 18 8.56069 17.8308 9.38662C17.7334 9.86224 17.1747 10.5833 16.8466 10.926L17.8693 11.9105C17.9846 11.7903 19.0124 10.7061 19.2226 9.67046C19.4686 8.46096 19.2072 7.22077 18.4818 6.1826C17.718 5.08561 16.5185 4.3415 15.1934 4.13693C13.917 3.94003 12.6406 4.24944 11.5999 5.01145C10.5593 5.77091 9.87498 6.89091 9.67762 8.16434C9.5469 9.0005 9.64173 9.85968 9.94674 10.6447L11.2744 10.1282Z" fill="#000042"/>
</svg>
