<svg width="20" height="24" viewBox="0 0 20 24" fill="none" xmlns="http://www.w3.org/2000/svg">
<path d="M3.50745 16.8508C2.28485 15.631 1.61332 14.0124 1.61332 12.2889C1.61332 8.73203 4.51473 5.83741 8.07999 5.83741C11.6453 5.83741 14.5467 8.73203 14.5467 12.2889C14.5467 13.8948 13.9469 15.4316 12.8781 16.6104L12.3911 17.0962C12.3655 17.1193 12.3399 17.1448 12.3117 17.1678L12.3142 17.1704L12.1656 17.3187L13.7752 18.9322C12.3117 19.9193 10.579 20.4537 8.79511 20.4537C6.41656 20.4537 4.18153 19.5306 2.50014 17.8531L1.49541 18.8555C3.44592 20.8015 6.03977 21.8729 8.79766 21.8729C10.9583 21.8729 13.055 21.1978 14.7979 19.9551L17.8992 23.0619L18.9065 22.0621L14.1622 17.3059C15.3233 15.9046 15.9718 14.1351 15.9718 12.2915C15.9718 10.1896 15.1516 8.21294 13.6624 6.72727C12.1733 5.24161 10.192 4.42334 8.08513 4.42334C5.97826 4.42334 3.99699 5.24161 2.50783 6.72727C1.01868 8.21294 0.198486 10.1896 0.198486 12.2915C0.198486 14.3934 1.01868 16.37 2.50783 17.8557L3.50745 16.8508Z" fill="#000042"/>
<path d="M16.9509 7.34342C17.4404 8.4174 17.6865 9.58854 17.6865 10.8236H19.109C19.109 7.99548 17.9607 5.41538 15.8795 3.56405C13.8495 1.75875 11.0814 0.766602 8.08258 0.766602V2.18578C10.7328 2.18578 13.1652 3.05263 14.9337 4.62524C15.8026 5.39492 16.4818 6.31036 16.9509 7.34342Z" fill="#000042"/>
</svg>
