<svg width="20" height="19" viewBox="0 0 20 19" fill="none" xmlns="http://www.w3.org/2000/svg">
<path d="M14.461 11.7257H7.57658L4.69823 0.239258H0.543457V1.65844H3.58584L6.46421 13.1449H15.4094L19.1899 4.09277L17.8776 3.54557L14.461 11.7257Z" fill="#000042"/>
<path d="M8.44037 16.8823C8.51873 16.0925 7.9405 15.3889 7.14884 15.3107C6.35718 15.2325 5.65189 15.8094 5.57353 16.5992C5.49517 17.389 6.0734 18.0927 6.86506 18.1709C7.65672 18.249 8.36201 17.6721 8.44037 16.8823Z" fill="#000042"/>
<path d="M15.6362 16.8814C15.7146 16.0916 15.1363 15.388 14.3447 15.3098C13.5531 15.2316 12.8478 15.8085 12.7694 16.5983C12.6911 17.3881 13.2693 18.0917 14.0609 18.1699C14.8526 18.248 15.5578 17.6712 15.6362 16.8814Z" fill="#000042"/>
<path d="M14.2996 1.00391L10.8856 4.97249L8.92479 3.28226L7.99438 4.35624L11.0342 6.97469L15.3786 1.92701L14.2996 1.00391Z" fill="#000042"/>
</svg>
