<svg width="19" height="19" viewBox="0 0 19 19" fill="none" xmlns="http://www.w3.org/2000/svg">
<path d="M14.2468 11.7257H7.35978L4.48144 0.239258H0.32666V1.65844H3.37161L6.24996 13.1449H15.1926L18.9731 4.09277L17.6608 3.54557L14.2468 11.7257Z" fill="black"/>
<path d="M6.80349 18.1798C7.59903 18.1798 8.24394 17.5364 8.24394 16.7427C8.24394 15.9491 7.59903 15.3057 6.80349 15.3057C6.00795 15.3057 5.36304 15.9491 5.36304 16.7427C5.36304 17.5364 6.00795 18.1798 6.80349 18.1798Z" fill="black"/>
<path d="M14.0008 18.1798C14.7963 18.1798 15.4412 17.5364 15.4412 16.7427C15.4412 15.9491 14.7963 15.3057 14.0008 15.3057C13.2052 15.3057 12.5603 15.9491 12.5603 16.7427C12.5603 17.5364 13.2052 18.1798 14.0008 18.1798Z" fill="black"/>
<path d="M11.8324 7.4095V4.88822H14.3596V3.46905H11.8324V0.947754H10.4099V3.46905H7.88263V4.88822H10.4099V7.4095H11.8324Z" fill="black"/>
</svg>
