<svg width="16" height="16" viewBox="0 0 16 16" fill="none" xmlns="http://www.w3.org/2000/svg">
<g clip-path="url(#clip0_2_31611)">
<path d="M11.8985 0.300781L0.700754 10.7772L0.00836663 14.5757C-0.0277821 14.7746 0.0417347 14.9762 0.191891 15.1202C0.317021 15.238 0.483862 15.3008 0.659044 15.3008C0.695193 15.3008 0.734123 15.2982 0.770271 15.2929L4.80225 14.6411L12.7466 7.22487L16 4.16204L11.8985 0.300781ZM14.2065 4.15942L12.5937 5.67774L10.2774 3.49712L11.8957 1.98403L14.2065 4.15942ZM4.19328 13.5285L1.40427 13.9788L1.88254 11.3558L9.37924 4.34005L11.6983 6.52329L4.19328 13.5285Z" fill="#000042"/>
</g>
<defs>
<clipPath id="clip0_2_31611">
<rect width="16" height="15" fill="white" transform="translate(0 0.300781)"/>
</clipPath>
</defs>
</svg>
