<svg width="18" height="19" viewBox="0 0 18 19" fill="none" xmlns="http://www.w3.org/2000/svg">
<path d="M4.45518 0.239258H0.302979V1.65844H3.34537L6.22371 13.1449H15.2509L17.7653 3.11086H5.17541L4.45518 0.239258ZM15.943 4.53004L14.1385 11.7257H7.33354L5.52912 4.53004H15.943Z" fill="#000042"/>
<path d="M6.88325 18.1781C7.6768 18.1219 8.27438 17.4345 8.21798 16.6428C8.16157 15.8511 7.47254 15.2549 6.67899 15.3112C5.88543 15.3675 5.28785 16.0549 5.34426 16.8466C5.40066 17.6382 6.08969 18.2344 6.88325 18.1781Z" fill="#000042"/>
<path d="M14.0805 18.1781C14.8741 18.1219 15.4716 17.4345 15.4152 16.6428C15.3588 15.8511 14.6698 15.2549 13.8763 15.3112C13.0827 15.3675 12.4851 16.0549 12.5415 16.8466C12.5979 17.6382 13.287 18.2344 14.0805 18.1781Z" fill="#000042"/>
</svg>
