<svg width="20" height="19" viewBox="0 0 20 19" fill="none" xmlns="http://www.w3.org/2000/svg">
<path d="M16.4604 3.85105C16.7064 3.26804 16.832 2.73616 16.832 2.26821C16.832 1.5778 16.5629 1.01013 16.0528 0.629126C15.5274 0.235334 14.8943 0.092125 14.2279 0.217422C13.1924 0.411761 12.0339 1.25305 10.7857 2.71826C10.4294 3.13763 10.1167 3.54421 9.8681 3.88686C9.61948 3.54676 9.30934 3.13763 8.95051 2.71826C7.69972 1.25305 6.54376 0.411761 5.50827 0.217422C4.84187 0.092125 4.20879 0.235334 3.68335 0.629126C3.1733 1.01013 2.90418 1.5778 2.90418 2.26821C2.90418 2.73616 3.02977 3.26804 3.27583 3.85105C3.36298 4.05562 3.4578 4.25251 3.5552 4.43662H0.520508V9.44597H3.39885V18.7793H16.3348V9.44597H19.2131V4.43662H16.1784C16.2758 4.25251 16.3732 4.05562 16.4604 3.85105ZM4.53687 1.76447C4.74704 1.60849 4.96491 1.5599 5.24428 1.6136C5.92863 1.74145 6.85391 2.45488 7.85608 3.62603C8.09701 3.90731 8.31486 4.18347 8.50709 4.43918H5.20072C4.62915 3.56977 3.99093 2.17361 4.53687 1.76447ZM9.15556 17.3576H4.82137V9.44341H9.15556V17.3576ZM9.15556 8.02422H3.39885H1.94302V5.85326H9.15556V8.02422ZM11.8776 3.62347C12.8772 2.45488 13.805 1.73889 14.4894 1.61104C14.7687 1.5599 14.9866 1.60593 15.1968 1.76191C15.7427 2.17105 15.1045 3.56722 14.5329 4.43408H11.2265C11.4188 4.18092 11.6392 3.90475 11.8776 3.62347ZM14.9123 17.3576H10.5781V9.44341H14.9123V17.3576ZM17.7906 5.85326V8.02422H16.3348H10.5781V5.85326H17.7906Z" fill="#000042"/>
</svg>
