<svg width="20" height="9" viewBox="0 0 20 9" fill="none" xmlns="http://www.w3.org/2000/svg">
<path d="M4.6993 8.77503C7.07529 8.77503 9.00786 6.84699 9.00786 4.47657C9.00786 3.97793 8.91815 3.50232 8.7618 3.05739L8.79 3.07785C9.00273 2.76333 9.35644 2.57665 9.73578 2.57665C10.1228 2.57665 10.4842 2.77866 10.6944 3.10341C10.5483 3.53556 10.4637 3.99839 10.4637 4.47913C10.4637 6.84955 12.3963 8.77759 14.7723 8.77759C17.1482 8.77759 19.0808 6.84955 19.0808 4.47913C19.0808 2.10871 17.1482 0.180664 14.7723 0.180664C13.4138 0.180664 12.204 0.812264 11.412 1.79419C10.9507 1.39528 10.3586 1.16003 9.73321 1.16003C9.10782 1.16003 8.51318 1.39016 8.05182 1.78907C7.26239 0.809702 6.05261 0.180664 4.69674 0.180664C2.32075 0.180664 0.388184 2.10871 0.388184 4.47913C0.390747 6.84699 2.32332 8.77503 4.6993 8.77503ZM14.7748 1.59472C16.3665 1.59472 17.6609 2.88606 17.6609 4.47401C17.6609 6.06196 16.3665 7.35329 14.7748 7.35329C13.1831 7.35329 11.8888 6.06196 11.8888 4.47401C11.8862 2.88606 13.1831 1.59472 14.7748 1.59472ZM4.6993 1.59472C6.29098 1.59472 7.58534 2.88606 7.58534 4.47401C7.58534 6.06196 6.29098 7.35329 4.6993 7.35329C3.10762 7.35329 1.81326 6.06196 1.81326 4.47401C1.81326 2.88606 3.10762 1.59472 4.6993 1.59472Z" fill="#000042"/>
</svg>
