<svg width="20" height="20" viewBox="0 0 20 20" fill="none" xmlns="http://www.w3.org/2000/svg">
<path d="M9.89313 19.533C12.3896 19.533 14.7374 18.5638 16.5008 16.802C18.2668 15.0402 19.2382 12.7004 19.2382 10.2098C19.2382 7.71924 18.2668 5.37696 16.5008 3.61768C14.7348 1.85585 12.3896 0.886719 9.89313 0.886719C7.39668 0.886719 5.04889 1.85585 3.28548 3.61768C1.51951 5.37951 0.548096 7.71924 0.548096 10.2098C0.548096 12.7004 1.51951 15.0427 3.28548 16.802C5.05145 18.5613 7.39668 19.533 9.89313 19.533ZM15.496 4.6175C16.9929 6.11083 17.8182 8.09513 17.8182 10.2073C17.8182 12.3194 16.9929 14.3037 15.496 15.7971C14.7963 16.4952 13.989 17.0424 13.1124 17.4336C13.2764 17.1805 13.4353 16.912 13.5814 16.6179C14.4452 14.8944 14.9219 12.6186 14.9219 10.2098C14.9219 7.80107 14.4452 5.52526 13.5814 3.80179C13.4353 3.50772 13.2764 3.23667 13.1124 2.98608C13.9915 3.3722 14.7989 3.92197 15.496 4.6175ZM10.6057 2.47978C11.2234 2.77896 11.8206 3.45403 12.3127 4.43595C13.0791 5.96765 13.502 8.01842 13.502 10.2098C13.502 12.4038 13.0791 14.4546 12.3127 15.9837C11.8206 16.9631 11.2234 17.6407 10.6057 17.9399V2.47978ZM9.18315 2.47978V17.9399C8.56545 17.6407 7.96825 16.9657 7.47613 15.9837C6.70977 14.452 6.28686 12.4013 6.28686 10.2098C6.28686 8.01586 6.70977 5.96509 7.47613 4.43595C7.96825 3.45403 8.56545 2.77896 9.18315 2.47978ZM4.29021 4.6175C4.98993 3.91941 5.79731 3.37221 6.67389 2.98097C6.50985 3.23412 6.35094 3.50262 6.20484 3.79668C5.34108 5.52016 4.86434 7.79596 4.86434 10.2047C4.86434 12.6135 5.34108 14.8893 6.20484 16.6128C6.35094 16.9069 6.50985 17.1779 6.67389 17.4285C5.79731 17.0398 4.98993 16.49 4.29021 15.792C2.79336 14.2986 1.96805 12.3143 1.96805 10.2022C1.96805 8.0977 2.79336 6.11083 4.29021 4.6175Z" fill="#000042"/>
</svg>
