<svg width="24" height="24" viewBox="0 0 24 24" fill="none" xmlns="http://www.w3.org/2000/svg">
<g opacity="0.5">
<path d="M17.0051 15.4959L15.5555 16.9382L22.0046 23.4204L23.4543 21.9781L17.0051 15.4959Z" fill="#737397"/>
<path d="M10.0901 19.907C4.67582 19.907 0.273743 15.5049 0.273743 10.0906C0.273743 4.6763 4.67582 0.27417 10.0901 0.27417C15.5043 0.27417 19.9064 4.6763 19.9064 10.0906C19.9064 15.5049 15.5043 19.907 10.0901 19.907ZM10.0901 2.31569C5.80465 2.31569 2.31868 5.80171 2.31868 10.0872C2.31868 14.3726 5.80465 17.8587 10.0901 17.8587C14.3755 17.8587 17.8615 14.3726 17.8615 10.0872C17.8615 5.80171 14.3755 2.31569 10.0901 2.31569Z" fill="#737397"/>
</g>
</svg>
