<svg width="20" height="20" viewBox="0 0 20 20" fill="none" xmlns="http://www.w3.org/2000/svg">
<path d="M15.8539 1.31237C15.5079 0.967166 15.0465 0.775391 14.557 0.775391C14.0674 0.775391 13.606 0.964609 13.26 1.31237L11.0788 3.48845C10.3637 4.20188 10.3637 5.36279 11.0788 6.07622L12.1835 7.17832C12.345 7.33942 12.345 7.60025 12.1835 7.76135L7.30852 12.6249C7.14705 12.786 6.88562 12.786 6.72414 12.6249L5.61945 11.5228C5.27343 11.1776 4.81208 10.9858 4.32253 10.9858C3.83298 10.9858 3.37162 11.1751 3.0256 11.5228L0.844411 13.6989C0.498394 14.0441 0.306152 14.5044 0.306152 14.9928C0.306152 15.4812 0.49583 15.9415 0.844411 16.2867L2.98715 18.4244C3.65356 19.0892 4.52757 19.4191 5.40158 19.4191C6.27559 19.4191 7.14962 19.0867 7.81602 18.4244L18.0017 8.26254C18.6476 7.61816 19.0013 6.76408 19.0013 5.85376C19.0013 4.94343 18.6451 4.08937 18.0017 3.44499L15.8539 1.31237ZM16.9919 7.26271L6.80616 17.4246C6.02955 18.1994 4.76595 18.1994 3.98933 17.4246L1.84657 15.2868C1.6851 15.1257 1.6851 14.8649 1.84657 14.7064L4.02777 12.5303C4.10466 12.4536 4.20975 12.4101 4.31996 12.4101C4.43018 12.4101 4.5327 12.4536 4.61216 12.5303L5.71685 13.6324C6.06287 13.9776 6.52422 14.1694 7.01377 14.1694C7.50332 14.1694 7.96468 13.9802 8.3107 13.6324L13.1857 8.76884C13.5317 8.42363 13.7239 7.96336 13.7239 7.47495C13.7239 6.98655 13.5343 6.52628 13.1857 6.18107L12.081 5.07897C12.0041 5.00225 11.9605 4.89741 11.9605 4.78746C11.9605 4.6775 12.0041 4.57521 12.081 4.49594L14.2622 2.31986C14.4237 2.15877 14.6851 2.15877 14.844 2.31986L16.9868 4.4576C17.3635 4.83349 17.5711 5.33212 17.5711 5.86143C17.5763 6.38819 17.3687 6.88682 16.9919 7.26271Z" fill="#000042"/>
</svg>
