<svg width="20" height="20" viewBox="0 0 8 8" fill="none" xmlns="http://www.w3.org/2000/svg">
<path d="M7.82839 3.72781L7.82564 3.72644C7.06065 3.34394 6.36615 2.84345 5.76148 2.23869C5.15671 1.63393 4.65621 0.939438 4.27362 0.174359L4.18624 0H3.81356L3.72638 0.174457C3.34389 0.939438 2.84338 1.63393 2.23862 2.23859C1.63385 2.84335 0.939352 3.34385 0.174656 3.72624L0 3.81342V4.18658L0.171809 4.27229L0.17446 4.27366C0.93945 4.65615 1.63395 5.15665 2.23862 5.76141C2.84338 6.36617 3.34389 7.06066 3.72638 7.82554L3.81356 8H4.18624L4.27362 7.82554C4.65611 7.06056 5.15662 6.36607 5.76138 5.76141C6.36615 5.15665 7.06065 4.65615 7.82544 4.27366L8 4.18648V3.81352L7.82839 3.72781Z" fill="#000042"/>
</svg>
