<svg width="21" height="22" viewBox="0 0 21 22" fill="none" xmlns="http://www.w3.org/2000/svg">
<path d="M19.6862 10.4641C17.8972 9.57169 16.2722 8.40311 14.8573 6.9916C13.4425 5.58009 12.2712 3.9589 11.3792 2.17661L10.741 0.895508L10.1002 2.17405C9.20572 3.95889 8.03439 5.58009 6.61957 6.9916C5.20474 8.40311 3.57974 9.57169 1.7907 10.4641L0.511719 11.1008L1.7907 11.7376C3.57974 12.63 5.20474 13.7985 6.61957 15.2101C8.03439 16.6216 9.20572 18.2402 10.1002 20.0276L10.741 21.2985L11.3792 20.0251C12.2737 18.2402 13.4451 16.619 14.8599 15.2101C16.2747 13.7985 17.8997 12.63 19.6888 11.7376L20.9626 11.1008L19.6939 10.4667L19.6862 10.4641ZM13.8526 14.2077C12.6428 15.4146 11.5996 16.7622 10.7385 18.2274C9.87725 16.7622 8.83407 15.4121 7.6243 14.2077C6.41452 13.0007 5.06377 11.96 3.59512 11.1008C5.06377 10.2417 6.41708 9.20092 7.6243 7.99398C8.83407 6.78703 9.87725 5.43944 10.7385 3.97423C11.5996 5.43944 12.6428 6.78959 13.8526 7.99398C15.0624 9.20092 16.4131 10.2417 17.8818 11.1008C16.4131 11.9626 15.0598 13.0033 13.8526 14.2077Z" fill="#000042"/>
</svg>
