<svg width="20" height="20" viewBox="0 0 20 20" fill="none" xmlns="http://www.w3.org/2000/svg">
<path d="M13.0498 10.5969C14.48 9.63032 15.4206 7.99634 15.4206 6.14501C15.4206 3.18135 13.0036 0.77002 10.033 0.77002C7.0624 0.77002 4.6454 3.18135 4.6454 6.14501C4.6454 7.99378 5.58606 9.62777 7.01626 10.5969C5.67833 11.0495 4.45318 11.8064 3.42538 12.8343C1.65941 14.5962 0.687988 16.9359 0.687988 19.4265H2.11051C2.11051 17.3143 2.93582 15.3301 4.43267 13.8367C5.92951 12.3434 7.91847 11.52 10.0356 11.52C12.1527 11.52 14.1417 12.3434 15.6385 13.8367C17.1354 15.3301 17.9607 17.3143 17.9607 19.4265H19.3832C19.3832 16.9359 18.4118 14.5936 16.6458 12.8343C15.6129 11.8064 14.3877 11.0521 13.0498 10.5969ZM10.033 10.1034C7.84671 10.1034 6.06792 8.32876 6.06792 6.14757C6.06792 3.96638 7.84671 2.19176 10.033 2.19176C12.2193 2.19176 13.9981 3.96638 13.9981 6.14757C13.9981 8.32876 12.2193 10.1034 10.033 10.1034Z" fill="#000042"/>
</svg>
