<svg width="20" height="20" viewBox="0 0 20 20" fill="none" xmlns="http://www.w3.org/2000/svg">
<path d="M10.1966 0.529297C7.70014 0.529297 5.35235 1.49844 3.58894 3.26027C1.82297 5.0221 0.851562 7.36183 0.851562 9.85243C0.851562 12.343 1.82297 14.6853 3.58894 16.4446C5.35491 18.2064 7.70014 19.1756 10.1966 19.1756C12.693 19.1756 15.0408 18.2064 16.8042 16.4446C18.5702 14.6828 19.5416 12.343 19.5416 9.85243C19.5416 7.36183 18.5702 5.01954 16.8042 3.26027C15.0383 1.50099 12.693 0.529297 10.1966 0.529297ZM15.7995 15.4448C14.3027 16.9381 12.3137 17.7615 10.1966 17.7615C8.07948 17.7615 6.09053 16.9381 4.59368 15.4448C3.09684 13.9514 2.27152 11.9671 2.27152 9.85498C2.27152 7.74283 3.09684 5.75854 4.59368 4.2652C6.09053 2.77186 8.07948 1.94848 10.1966 1.94848C12.3137 1.94848 14.3027 2.77186 15.7995 4.2652C17.2964 5.75854 18.1217 7.74283 18.1217 9.85498C18.1217 11.9671 17.2964 13.9514 15.7995 15.4448Z" fill="#000042"/>
<path d="M7.20546 9.70922V9.7041C7.54379 9.61716 7.78727 9.29752 7.78727 8.90629C7.78727 8.30793 7.23878 7.94482 6.61082 7.94482C5.92391 7.94482 5.43436 8.3872 5.3626 8.95232L5.8829 9.06739C5.93672 8.67871 6.20841 8.46903 6.55956 8.46903C6.92095 8.46903 7.18495 8.6736 7.18495 9.00346C7.18495 9.31031 6.95171 9.53278 6.56212 9.53278H6.21866V9.99816H6.58007C7.04142 9.99816 7.27978 10.2411 7.27978 10.5633C7.27978 10.911 7.00554 11.1233 6.59801 11.1233C6.09564 11.1233 5.85215 10.8037 5.78038 10.5889L5.28314 10.8394C5.42924 11.333 5.97774 11.6526 6.61339 11.6526C7.45921 11.6526 7.8898 11.1003 7.8898 10.5479C7.8898 10.0826 7.58736 9.78593 7.20546 9.70922Z" fill="#000042"/>
<path d="M9.95303 9.25417C9.57369 9.25417 9.24818 9.43571 9.09439 9.71955H9.08413C9.09695 9.02658 9.49936 8.46402 10.1119 8.46402C10.3401 8.46402 10.5502 8.51773 10.7476 8.67882L11.0629 8.26713C10.8014 8.01654 10.4452 7.94238 10.153 7.94238C9.15591 7.94238 8.46643 8.79133 8.46643 9.9906C8.46643 11.062 9.02007 11.6502 9.83257 11.6502C10.6143 11.6502 11.1397 11.1157 11.1397 10.4227C11.1423 9.71955 10.5836 9.25417 9.95303 9.25417ZM9.83769 11.1413C9.47629 11.1413 9.13283 10.8626 9.13283 10.4483C9.13283 10.052 9.4481 9.73234 9.84282 9.73234C10.2093 9.73234 10.5425 10.0111 10.5425 10.4432C10.5425 10.8754 10.1991 11.1413 9.83769 11.1413Z" fill="#000042"/>
<path d="M13.0621 7.94482C12.2291 7.94482 11.6909 8.71195 11.6909 9.80638C11.6909 10.8957 12.2317 11.6552 13.0621 11.6552C13.89 11.6552 14.4283 10.8983 14.4283 9.80638C14.4283 8.70939 13.89 7.94482 13.0621 7.94482ZM13.0621 11.1182C12.6084 11.1182 12.2983 10.6477 12.2983 9.79871C12.2983 8.95487 12.6084 8.4767 13.0621 8.4767C13.5107 8.4767 13.8131 8.95487 13.8131 9.79871C13.8105 10.6477 13.5107 11.1182 13.0621 11.1182Z" fill="#000042"/>
<path d="M14.8845 8.71716C14.8845 9.17743 15.1972 9.49963 15.6432 9.49963C16.0917 9.49963 16.3993 9.17743 16.3993 8.71716C16.3993 8.25688 16.0892 7.93213 15.6432 7.93213C15.1972 7.93213 14.8845 8.25688 14.8845 8.71716ZM16.0738 8.71716C16.0738 8.99844 15.8969 9.20044 15.6457 9.20044C15.392 9.20044 15.2177 8.99844 15.2177 8.71716C15.2177 8.43332 15.3945 8.23131 15.6457 8.23131C15.8969 8.23131 16.0738 8.43332 16.0738 8.71716Z" fill="#000042"/>
</svg>
