<svg width="20" height="19" viewBox="0 0 20 19" fill="none" xmlns="http://www.w3.org/2000/svg">
<path d="M10.0329 7.89893C8.0542 7.89893 6.44458 9.50477 6.44458 11.4788C6.44458 13.4529 8.0542 15.0588 10.0329 15.0588C12.0116 15.0588 13.6212 13.4529 13.6212 11.4788C13.6212 9.50477 12.0116 7.89893 10.0329 7.89893ZM10.0329 13.6421C8.83851 13.6421 7.86453 12.673 7.86453 11.4788C7.86453 10.2872 8.83594 9.31555 10.0329 9.31555C11.2273 9.31555 12.2013 10.2847 12.2013 11.4788C12.2013 12.6704 11.2273 13.6421 10.0329 13.6421Z" fill="#000042"/>
<path d="M0.685303 18.6487H19.3779V4.30859H0.685303V18.6487ZM2.10782 5.72778H10.0329V5.73801H17.2301V5.72778H17.958V17.2321H2.11038V5.72778H2.10782Z" fill="#000042"/>
<path d="M17.9477 0H9.31268V1.41918H17.9477V0Z" fill="#000042"/>
</svg>
