<svg width="20" height="20" viewBox="0 0 20 20" fill="none" xmlns="http://www.w3.org/2000/svg">
<path d="M3.32013 0.404297C1.73871 0.404297 0.449463 1.68796 0.449463 3.26823C0.449463 4.60047 1.36962 5.72303 2.60759 6.03755V18.3422H4.03011V6.03755C5.26808 5.72047 6.1882 4.60047 6.1882 3.26823C6.1882 1.69051 4.90155 0.404297 3.32013 0.404297ZM2.60759 4.52632C2.1693 4.27828 1.87198 3.80778 1.87198 3.26823C1.87198 2.72869 2.1693 2.26074 2.60759 2.0127C2.77419 1.91809 2.96387 1.85416 3.16379 1.83371C3.21505 1.82859 3.2663 1.82603 3.31757 1.82603C3.36883 1.82603 3.42265 1.82859 3.47134 1.83371C3.67126 1.85416 3.86094 1.91809 4.02754 2.0127C4.46583 2.26074 4.76315 2.73125 4.76315 3.26823C4.76315 3.80522 4.46583 4.27572 4.02754 4.52632C3.81737 4.64394 3.57387 4.71299 3.31757 4.71299C3.06126 4.71299 2.81776 4.64394 2.60759 4.52632Z" fill="#000042"/>
<path d="M10.5069 6.95838V1.83398H9.08441V6.96094C7.84643 7.27802 6.92627 8.39802 6.92627 9.73026C6.92627 11.0625 7.84643 12.1851 9.08441 12.4996V18.3451H10.5069V12.4996C11.7449 12.1825 12.665 11.0625 12.665 9.73026C12.665 8.39802 11.7449 7.27546 10.5069 6.95838ZM10.5069 10.9858C10.2967 11.1034 10.0533 11.1725 9.79695 11.1725C9.53808 11.1725 9.29714 11.1034 9.08697 10.9858C8.64868 10.7378 8.35136 10.2673 8.35136 9.72771C8.35136 9.18816 8.64868 8.72022 9.08697 8.46962C9.29714 8.352 9.54064 8.28295 9.79695 8.28295C10.0558 8.28295 10.2967 8.352 10.5069 8.46962C10.9452 8.71766 11.2425 9.18816 11.2425 9.72771C11.2425 10.2673 10.9452 10.7378 10.5069 10.9858Z" fill="#000042"/>
<path d="M16.9713 13.4201V1.83398H15.5487V13.4227C14.3108 13.7398 13.3906 14.8598 13.3906 16.192C13.3906 17.7697 14.6773 19.0559 16.2613 19.0559C17.8453 19.0559 19.1319 17.7723 19.1319 16.192C19.1294 14.8572 18.2092 13.7372 16.9713 13.4201ZM16.9713 17.4475C16.7611 17.5652 16.5176 17.6342 16.2613 17.6342C16.005 17.6342 15.7615 17.5652 15.5513 17.4475C15.113 17.1995 14.8157 16.729 14.8157 16.1895C14.8157 15.6499 15.113 15.182 15.5513 14.9339C15.7615 14.8163 16.005 14.7473 16.2613 14.7473C16.5176 14.7473 16.7611 14.8163 16.9713 14.9339C17.4096 15.182 17.7069 15.6525 17.7069 16.1895C17.7069 16.729 17.4096 17.1995 16.9713 17.4475ZM16.9713 18.3451H16.2613H15.5513V18.2223C15.7743 18.299 16.0127 18.3451 16.2613 18.3451C16.5099 18.3451 16.7483 18.3016 16.9713 18.2223V18.3451Z" fill="#000042"/>
</svg>
