<svg width="20" height="18" viewBox="0 0 20 18" fill="none" xmlns="http://www.w3.org/2000/svg">
<path d="M14.3339 0.0893555C11.881 0.0893555 10.4739 1.40882 9.74337 2.45978C9.61778 2.27567 9.46912 2.08644 9.29996 1.89466C8.56435 1.07127 7.24436 0.0893555 5.14519 0.0893555C3.72267 0.0893555 2.31041 0.710729 1.36975 1.75402C0.63671 2.56461 0.30607 3.59512 0.411157 4.73047C0.503428 5.71239 0.923775 6.70964 1.60043 7.53814L9.74081 17.3701L17.8786 7.54326L17.8838 7.53814C18.5553 6.70964 18.9756 5.71238 19.0679 4.73302C19.1756 3.59512 18.8449 2.56461 18.1119 1.75402C17.1686 0.710729 15.7564 0.0893555 14.3339 0.0893555ZM16.7765 6.6406L9.73825 15.1403L2.69743 6.63805C1.44921 5.10636 1.67989 3.52352 2.42319 2.70014C3.08959 1.9637 4.1302 1.50598 5.14263 1.50598C8.12094 1.50598 9.01289 4.04772 9.04877 4.15256L9.20769 4.64097H10.2509L10.42 4.17302C10.5174 3.89941 11.4658 1.50598 14.3339 1.50598C15.3463 1.50598 16.3869 1.9637 17.0533 2.70014C18.1067 3.87129 17.6505 5.56151 16.7765 6.6406Z" fill="#000042"/>
</svg>
