<svg width="20" height="20" viewBox="0 0 20 20" fill="none" xmlns="http://www.w3.org/2000/svg">
<path d="M16.0718 8.27733C16.0718 6.17541 15.2517 4.19878 13.7625 2.71311C12.2733 1.22745 10.2921 0.40918 8.18522 0.40918C6.07836 0.40918 4.09709 1.22745 2.60793 2.71311C1.11878 4.19878 0.298584 6.17541 0.298584 8.27733C0.298584 10.3793 1.11878 12.3559 2.60793 13.8415C4.09709 15.3272 6.07836 16.1455 8.18522 16.1455C10.064 16.1455 11.8428 15.4934 13.2627 14.2967L18.0019 19.0478L19.0092 18.0479L14.2649 13.2892C15.4336 11.8854 16.0718 10.1312 16.0718 8.27733ZM8.18266 14.7288C4.6174 14.7288 1.71597 11.8342 1.71597 8.27733C1.71597 4.72043 4.6174 1.82581 8.18266 1.82581C11.7479 1.82581 14.6493 4.72043 14.6493 8.27733C14.6493 11.8342 11.7479 14.7288 8.18266 14.7288Z" fill="#000042"/>
</svg>
